<?xml version="1.0" standalone="no"?>
<!DOCTYPE svg PUBLIC "-//W3C//DTD SVG 20010904//EN"
 "http://www.w3.org/TR/2001/REC-SVG-20010904/DTD/svg10.dtd">
<svg version="1.0" xmlns="http://www.w3.org/2000/svg"
 width="1024.000000pt" height="1024.000000pt" viewBox="0 0 1024.000000 1024.000000"
 preserveAspectRatio="xMidYMid meet">

<g transform="translate(0.000000,1024.000000) scale(0.100000,-0.100000)"
fill="#000000" stroke="none">
<path d="M0 5120 l0 -5120 5120 0 5120 0 0 5120 0 5120 -5120 0 -5120 0 0
-5120z m7619 3420 c288 -30 507 -149 589 -321 121 -254 22 -594 -273 -939
-100 -117 -235 -234 -478 -414 -73 -55 -115 -92 -111 -99 20 -35 154 -184 236
-263 112 -108 176 -157 289 -222 70 -40 85 -53 87 -76 9 -71 -187 -261 -342
-332 -51 -23 -61 -25 -106 -15 -95 20 -148 57 -286 195 -72 72 -196 210 -275
306 -147 177 -206 238 -219 223 -4 -4 -51 -163 -104 -353 -54 -190 -103 -363
-109 -385 -10 -32 -20 -44 -52 -59 -38 -19 -42 -19 -123 -2 -173 35 -258 84
-304 175 -36 70 -37 145 -4 272 30 116 228 729 423 1311 l147 437 -55 58
c-119 126 -188 267 -146 301 38 32 350 125 521 156 271 50 506 65 695 46z
m-3318 -44 c171 -37 311 -159 360 -314 28 -91 28 -213 1 -313 -44 -159 -168
-401 -323 -630 -110 -163 -133 -175 -254 -134 -142 47 -327 154 -340 195 -5
15 18 62 88 178 149 248 253 439 244 449 -15 15 -400 -209 -542 -315 -166
-124 -372 -338 -425 -443 -27 -53 -26 -104 3 -133 26 -26 37 -30 337 -110 400
-107 556 -174 671 -286 51 -50 71 -79 88 -125 47 -125 35 -282 -33 -420 -133
-269 -537 -463 -1054 -506 -263 -22 -517 16 -698 106 -202 99 -292 241 -249
391 22 79 52 128 116 193 81 80 268 201 313 201 25 0 64 -22 71 -39 4 -9 11
-61 15 -116 8 -98 9 -101 43 -130 54 -47 134 -68 267 -73 193 -7 396 42 527
127 62 40 123 103 123 126 0 16 -111 54 -440 150 -296 87 -359 109 -460 161
-160 82 -248 174 -284 293 -62 208 67 471 393 804 365 374 860 663 1226 716
90 13 143 12 216 -3z m1704 -11 c85 -23 149 -61 210 -127 118 -127 157 -296
120 -514 -26 -149 -109 -393 -186 -545 -50 -101 -101 -109 -326 -49 -128 33
-186 58 -191 81 -2 9 24 79 56 155 79 185 162 448 162 517 0 48 -78 0 -205
-128 -292 -295 -556 -803 -651 -1255 -12 -58 -18 -130 -19 -225 0 -122 3 -144
20 -174 34 -57 64 -73 140 -73 57 0 77 5 140 37 96 48 228 156 401 326 77 77
143 139 146 139 38 0 68 -51 97 -168 49 -190 7 -327 -149 -482 -112 -112 -319
-243 -467 -295 -400 -139 -801 56 -913 445 -31 107 -38 335 -16 487 45 304
197 693 402 1023 189 307 461 589 692 719 188 106 385 145 537 106z m1966
-2699 c146 -31 219 -83 219 -156 0 -21 -24 -107 -54 -192 -107 -307 -432
-1346 -423 -1355 2 -1 24 4 49 12 75 22 285 55 355 55 36 0 76 -6 92 -14 34
-18 81 -104 112 -206 30 -98 34 -254 7 -274 -11 -8 -71 -15 -165 -19 -226 -9
-488 -48 -761 -113 -125 -29 -157 -30 -198 -5 -46 28 -101 86 -124 131 -32 63
-26 125 36 351 163 596 499 1659 549 1733 31 47 78 66 165 66 41 0 105 -7 141
-14z m-1013 -112 c76 -20 141 -54 166 -88 39 -52 29 -110 -77 -436 -212 -656
-569 -1810 -562 -1818 2 -2 68 3 147 12 347 38 584 44 803 21 288 -31 321 -60
296 -261 -12 -101 -46 -253 -58 -265 -4 -4 -154 -9 -333 -12 -179 -3 -404 -12
-500 -21 -1326 -123 -2743 -466 -3605 -874 -203 -96 -260 -110 -306 -74 -62
49 -209 309 -209 369 0 27 8 38 53 71 170 127 418 222 932 356 512 134 811
194 1267 256 444 60 726 105 820 131 41 11 33 -9 107 259 73 266 182 643 232
810 211 690 486 1530 509 1554 10 10 33 22 51 27 44 11 196 1 267 -17z m-883
-24 c152 -36 249 -93 261 -155 6 -33 -10 -91 -161 -595 -146 -486 -274 -931
-436 -1518 -47 -172 -65 -202 -139 -235 -70 -32 -246 -36 -337 -9 -90 28 -145
75 -172 146 -24 64 -62 255 -90 456 -28 191 -71 556 -71 597 0 52 -15 38 -32
-29 -32 -129 -329 -1205 -344 -1246 -28 -75 -94 -89 -253 -52 -110 26 -189 66
-219 110 -22 32 -24 42 -19 120 4 57 20 139 51 250 25 91 65 233 87 315 50
181 231 804 335 1150 121 403 164 533 180 550 26 26 63 30 259 30 213 0 249
-9 291 -71 22 -34 23 -37 99 -804 39 -383 49 -463 57 -440 3 8 29 103 58 210
69 259 223 770 307 1022 57 171 72 205 93 216 29 14 75 10 195 -18z m-2114
-189 c166 -42 283 -130 346 -259 38 -76 38 -76 38 -202 -1 -112 -4 -132 -28
-194 -73 -186 -229 -346 -539 -555 -43 -28 -78 -53 -78 -55 0 -2 41 -28 92
-57 110 -65 201 -146 232 -208 115 -227 6 -537 -269 -771 -237 -202 -583 -372
-897 -442 -146 -32 -326 -32 -420 0 -125 43 -269 167 -335 287 -42 78 -38 134
31 350 111 352 240 714 356 1003 65 160 115 292 112 292 -3 0 -25 -7 -49 -16
-65 -25 -102 -13 -179 58 -73 69 -161 195 -170 245 -9 45 16 71 126 131 281
153 688 303 1007 372 245 52 472 60 624 21z"/>
<path d="M7490 8020 c-90 -10 -282 -49 -292 -58 -3 -4 -47 -124 -96 -267 -50
-143 -115 -329 -145 -412 -30 -84 -50 -153 -46 -153 17 0 219 142 310 218 225
189 489 520 489 614 0 55 -73 75 -220 58z"/>
<path d="M3505 4966 c-123 -26 -264 -62 -271 -69 -3 -2 -49 -138 -104 -301
-68 -205 -94 -296 -85 -296 46 0 248 127 416 261 122 97 271 255 304 323 26
53 27 57 11 81 -15 23 -22 25 -89 24 -39 0 -121 -11 -182 -23z"/>
<path d="M3050 3835 c-8 -2 -54 -9 -103 -15 -48 -7 -90 -16 -92 -21 -15 -23
-195 -552 -190 -557 10 -10 146 18 239 49 253 84 519 255 598 384 21 35 24 78
6 93 -46 37 -368 84 -458 67z"/>
</g>
</svg>
